<svg xmlns="http://www.w3.org/2000/svg" width="980" height="600">
<rect x="0" y="0" width="100%" height="100%" fill="white"/>
<text x="490.0" y="38" text-anchor="middle" font-family="Helvetica" font-size="24" font-weight="bold">PEDB: Holistic Ratings by Source (Annotator One)</text>
<text x="24" y="275.0" transform="rotate(-90 24,275.0)" text-anchor="middle" font-family="Helvetica" font-size="16">Mean rating (1-5)</text>
<line x1="90" y1="480.0" x2="950" y2="480.0" stroke="#e6e6e6"/>
<text x="80" y="485.0" text-anchor="end" font-family="Helvetica" font-size="13">0</text>
<line x1="90" y1="398.0" x2="950" y2="398.0" stroke="#e6e6e6"/>
<text x="80" y="403.0" text-anchor="end" font-family="Helvetica" font-size="13">1</text>
<line x1="90" y1="316.0" x2="950" y2="316.0" stroke="#e6e6e6"/>
<text x="80" y="321.0" text-anchor="end" font-family="Helvetica" font-size="13">2</text>
<line x1="90" y1="234.0" x2="950" y2="234.0" stroke="#e6e6e6"/>
<text x="80" y="239.0" text-anchor="end" font-family="Helvetica" font-size="13">3</text>
<line x1="90" y1="152.0" x2="950" y2="152.0" stroke="#e6e6e6"/>
<text x="80" y="157.0" text-anchor="end" font-family="Helvetica" font-size="13">4</text>
<line x1="90" y1="70.0" x2="950" y2="70.0" stroke="#e6e6e6"/>
<text x="80" y="75.0" text-anchor="end" font-family="Helvetica" font-size="13">5</text>
<line x1="90" y1="70" x2="90" y2="480" stroke="#222"/>
<line x1="90" y1="480" x2="950" y2="480" stroke="#222"/>
<rect x="145.1" y="70.0" width="80.3" height="410.0" fill="#1f77b4"/>
<text x="185.2" y="62.0" text-anchor="middle" font-family="Helvetica" font-size="12">5.0</text>
<rect x="241.3" y="80.2" width="80.3" height="399.8" fill="#ff7f0e"/>
<text x="281.5" y="72.2" text-anchor="middle" font-family="Helvetica" font-size="12">4.9</text>
<text x="233.3" y="504" text-anchor="middle" font-family="Helvetica" font-size="12">clarity</text>
<rect x="431.7" y="70.0" width="80.3" height="410.0" fill="#1f77b4"/>
<text x="471.9" y="62.0" text-anchor="middle" font-family="Helvetica" font-size="12">5.0</text>
<rect x="528.0" y="70.0" width="80.3" height="410.0" fill="#ff7f0e"/>
<text x="568.1" y="62.0" text-anchor="middle" font-family="Helvetica" font-size="12">5.0</text>
<text x="520.0" y="504" text-anchor="middle" font-family="Helvetica" font-size="12">correctness</text>
<rect x="718.4" y="70.0" width="80.3" height="410.0" fill="#1f77b4"/>
<text x="758.5" y="62.0" text-anchor="middle" font-family="Helvetica" font-size="12">5.0</text>
<rect x="814.7" y="152.0" width="80.3" height="328.0" fill="#ff7f0e"/>
<text x="854.8" y="144.0" text-anchor="middle" font-family="Helvetica" font-size="12">4.0</text>
<text x="806.7" y="504" text-anchor="middle" font-family="Helvetica" font-size="12">completeness</text>
<rect x="760" y="68" width="16" height="16" fill="#1f77b4"/><text x="784" y="81" font-family="Helvetica" font-size="14">Human</text>
<rect x="856" y="68" width="16" height="16" fill="#ff7f0e"/><text x="880" y="81" font-family="Helvetica" font-size="14">AI</text>
</svg>