<svg xmlns="http://www.w3.org/2000/svg" width="980" height="520">
<rect x="0" y="0" width="100%" height="100%" fill="white"/>
<text x="490" y="34" text-anchor="middle" font-family="Helvetica" font-size="24" font-weight="bold">PEDB: Key Effect Estimates with 95% CIs</text>
<line x1="631.2" y1="70" x2="631.2" y2="450" stroke="#999" stroke-dasharray="4,4"/>
<line x1="301.2" y1="450" x2="301.2" y2="456" stroke="#333"/>
<text x="301.2" y="474" text-anchor="middle" font-family="Helvetica" font-size="12">-40</text>
<line x1="383.8" y1="450" x2="383.8" y2="456" stroke="#333"/>
<text x="383.8" y="474" text-anchor="middle" font-family="Helvetica" font-size="12">-30</text>
<line x1="466.2" y1="450" x2="466.2" y2="456" stroke="#333"/>
<text x="466.2" y="474" text-anchor="middle" font-family="Helvetica" font-size="12">-20</text>
<line x1="548.8" y1="450" x2="548.8" y2="456" stroke="#333"/>
<text x="548.8" y="474" text-anchor="middle" font-family="Helvetica" font-size="12">-10</text>
<line x1="631.2" y1="450" x2="631.2" y2="456" stroke="#333"/>
<text x="631.2" y="474" text-anchor="middle" font-family="Helvetica" font-size="12">0</text>
<line x1="713.8" y1="450" x2="713.8" y2="456" stroke="#333"/>
<text x="713.8" y="474" text-anchor="middle" font-family="Helvetica" font-size="12">10</text>
<line x1="796.2" y1="450" x2="796.2" y2="456" stroke="#333"/>
<text x="796.2" y="474" text-anchor="middle" font-family="Helvetica" font-size="12">20</text>
<line x1="878.8" y1="450" x2="878.8" y2="456" stroke="#333"/>
<text x="878.8" y="474" text-anchor="middle" font-family="Helvetica" font-size="12">30</text>
<line x1="961.2" y1="450" x2="961.2" y2="456" stroke="#333"/>
<text x="961.2" y="474" text-anchor="middle" font-family="Helvetica" font-size="12">40</text>
<line x1="260" y1="450" x2="920" y2="450" stroke="#333"/>
<line x1="508.8" y1="146.0" x2="918.7" y2="146.0" stroke="#1f77b4" stroke-width="3"/>
<line x1="508.8" y1="139.0" x2="508.8" y2="153.0" stroke="#1f77b4" stroke-width="2"/>
<line x1="918.7" y1="139.0" x2="918.7" y2="153.0" stroke="#1f77b4" stroke-width="2"/>
<circle cx="713.8" cy="146.0" r="5" fill="#1f77b4"/>
<text x="250" y="150.0" text-anchor="end" font-family="Helvetica" font-size="13">VERIFY (AI-human, pp)</text>
<text x="926.7" y="150.0" text-anchor="start" font-family="Helvetica" font-size="12">10.00 [-14.84, 34.84]</text>
<line x1="307.0" y1="222.0" x2="708.0" y2="222.0" stroke="#1f77b4" stroke-width="3"/>
<line x1="307.0" y1="215.0" x2="307.0" y2="229.0" stroke="#1f77b4" stroke-width="2"/>
<line x1="708.0" y1="215.0" x2="708.0" y2="229.0" stroke="#1f77b4" stroke-width="2"/>
<circle cx="507.5" cy="222.0" r="5" fill="#1f77b4"/>
<text x="250" y="226.0" text-anchor="end" font-family="Helvetica" font-size="13">INTUITION (AI-human, pp)</text>
<text x="716.0" y="226.0" text-anchor="start" font-family="Helvetica" font-size="12">-15.00 [-39.30, 9.30]</text>
<line x1="629.4" y1="298.0" x2="631.1" y2="298.0" stroke="#d62728" stroke-width="3"/>
<line x1="629.4" y1="291.0" x2="629.4" y2="305.0" stroke="#d62728" stroke-width="2"/>
<line x1="631.1" y1="291.0" x2="631.1" y2="305.0" stroke="#d62728" stroke-width="2"/>
<circle cx="630.2" cy="298.0" r="5" fill="#d62728"/>
<text x="250" y="302.0" text-anchor="end" font-family="Helvetica" font-size="13">Clarity (AI-human)</text>
<text x="639.1" y="302.0" text-anchor="start" font-family="Helvetica" font-size="12">-0.12 [-0.23, -0.02]</text>
<line x1="623.0" y1="374.0" x2="623.0" y2="374.0" stroke="#d62728" stroke-width="3"/>
<line x1="623.0" y1="367.0" x2="623.0" y2="381.0" stroke="#d62728" stroke-width="2"/>
<line x1="623.0" y1="367.0" x2="623.0" y2="381.0" stroke="#d62728" stroke-width="2"/>
<circle cx="623.0" cy="374.0" r="5" fill="#d62728"/>
<text x="250" y="378.0" text-anchor="end" font-family="Helvetica" font-size="13">Completeness (AI-human)</text>
<text x="631.0" y="378.0" text-anchor="start" font-family="Helvetica" font-size="12">-1.00 [-1.00, -1.00]</text>
<text x="590.0" y="502" text-anchor="middle" font-family="Helvetica" font-size="14">Effect size (percentage points for move prevalence; raw scale for ratings)</text>
</svg>