<svg xmlns="http://www.w3.org/2000/svg" width="980" height="600">
<rect x="0" y="0" width="100%" height="100%" fill="white"/>
<text x="490.0" y="38" text-anchor="middle" font-family="Helvetica" font-size="24" font-weight="bold">PEDB: Explanation-Level Move Presence (60-sample)</text>
<text x="24" y="275.0" transform="rotate(-90 24,275.0)" text-anchor="middle" font-family="Helvetica" font-size="16">Percent of explanations</text>
<line x1="90" y1="480.0" x2="950" y2="480.0" stroke="#e6e6e6"/>
<text x="80" y="485.0" text-anchor="end" font-family="Helvetica" font-size="13">0</text>
<line x1="90" y1="398.0" x2="950" y2="398.0" stroke="#e6e6e6"/>
<text x="80" y="403.0" text-anchor="end" font-family="Helvetica" font-size="13">20</text>
<line x1="90" y1="316.0" x2="950" y2="316.0" stroke="#e6e6e6"/>
<text x="80" y="321.0" text-anchor="end" font-family="Helvetica" font-size="13">40</text>
<line x1="90" y1="234.0" x2="950" y2="234.0" stroke="#e6e6e6"/>
<text x="80" y="239.0" text-anchor="end" font-family="Helvetica" font-size="13">60</text>
<line x1="90" y1="152.0" x2="950" y2="152.0" stroke="#e6e6e6"/>
<text x="80" y="157.0" text-anchor="end" font-family="Helvetica" font-size="13">80</text>
<line x1="90" y1="70.0" x2="950" y2="70.0" stroke="#e6e6e6"/>
<text x="80" y="75.0" text-anchor="end" font-family="Helvetica" font-size="13">100</text>
<line x1="90" y1="70" x2="90" y2="480" stroke="#222"/>
<line x1="90" y1="480" x2="950" y2="480" stroke="#222"/>
<rect x="119.8" y="70.0" width="48.2" height="410.0" fill="#1f77b4"/>
<text x="143.9" y="62.0" text-anchor="middle" font-family="Helvetica" font-size="12">100.0</text>
<rect x="184.0" y="70.0" width="48.2" height="410.0" fill="#ff7f0e"/>
<text x="208.1" y="62.0" text-anchor="middle" font-family="Helvetica" font-size="12">100.0</text>
<text x="176.0" y="504" text-anchor="middle" font-family="Helvetica" font-size="12">FRAME</text>
<rect x="291.8" y="70.0" width="48.2" height="410.0" fill="#1f77b4"/>
<text x="315.9" y="62.0" text-anchor="middle" font-family="Helvetica" font-size="12">100.0</text>
<rect x="356.0" y="70.0" width="48.2" height="410.0" fill="#ff7f0e"/>
<text x="380.1" y="62.0" text-anchor="middle" font-family="Helvetica" font-size="12">100.0</text>
<text x="348.0" y="504" text-anchor="middle" font-family="Helvetica" font-size="12">PRINCIPLE_DERIVE</text>
<rect x="463.8" y="213.5" width="48.2" height="266.5" fill="#1f77b4"/>
<text x="487.9" y="205.5" text-anchor="middle" font-family="Helvetica" font-size="12">65.0</text>
<rect x="528.0" y="172.5" width="48.2" height="307.5" fill="#ff7f0e"/>
<text x="552.1" y="164.5" text-anchor="middle" font-family="Helvetica" font-size="12">75.0</text>
<text x="520.0" y="504" text-anchor="middle" font-family="Helvetica" font-size="12">VERIFY</text>
<rect x="635.8" y="336.5" width="48.2" height="143.5" fill="#1f77b4"/>
<text x="659.9" y="328.5" text-anchor="middle" font-family="Helvetica" font-size="12">35.0</text>
<rect x="700.0" y="398.0" width="48.2" height="82.0" fill="#ff7f0e"/>
<text x="724.1" y="390.0" text-anchor="middle" font-family="Helvetica" font-size="12">20.0</text>
<text x="692.0" y="504" text-anchor="middle" font-family="Helvetica" font-size="12">INTUITION</text>
<rect x="807.8" y="316.0" width="48.2" height="164.0" fill="#1f77b4"/>
<text x="831.9" y="308.0" text-anchor="middle" font-family="Helvetica" font-size="12">40.0</text>
<rect x="872.0" y="316.0" width="48.2" height="164.0" fill="#ff7f0e"/>
<text x="896.1" y="308.0" text-anchor="middle" font-family="Helvetica" font-size="12">40.0</text>
<text x="864.0" y="504" text-anchor="middle" font-family="Helvetica" font-size="12">CAVEAT</text>
<rect x="760" y="68" width="16" height="16" fill="#1f77b4"/><text x="784" y="81" font-family="Helvetica" font-size="14">Human</text>
<rect x="856" y="68" width="16" height="16" fill="#ff7f0e"/><text x="880" y="81" font-family="Helvetica" font-size="14">AI</text>
</svg>